<?xml version="1.0" encoding="UTF-8"?>
<svg width="24" height="24" viewBox="0 0 24 24" fill="none" xmlns="http://www.w3.org/2000/svg">
    <path d="M12 4C8.5 4 6 6.5 6 10C6 13.5 8.5 16 12 16C15.5 16 18 13.5 18 10C18 6.5 15.5 4 12 4ZM12 14C9.8 14 8 12.2 8 10C8 7.8 9.8 6 12 6C14.2 6 16 7.8 16 10C16 12.2 14.2 14 12 14Z" fill="#9B8E6A"/>
    <path d="M12 18C9.5 18 7 20.5 7 23H17C17 20.5 14.5 18 12 18Z" fill="#9B8E6A"/>
    <path d="M8 10C8.6 10 9 9.6 9 9C9 8.4 8.6 8 8 8C7.4 8 7 8.4 7 9C7 9.6 7.4 10 8 10Z" fill="#9B8E6A"/>
    <path d="M16 10C16.6 10 17 9.6 17 9C17 8.4 16.6 8 16 8C15.4 8 15 8.4 15 9C15 9.6 15.4 10 16 10Z" fill="#9B8E6A"/>
</svg> 